# xmcd
#
# Track frame offsets: 
#        150
#        20409
#        41521
#        55281
#        76079
#        99895
#
# Disc length: 1547 seconds
#
# Revision: 2
# Processed by: cddbd v1.5.2PL0 Copyright (c) Steve Scherf et al.
# Submitted via: ExactAudioCopyFreeDBPlugin 1.0
#
DISCID=39060906
DTITLE=Blackberry Smoke - The Southern Ground Sessions
DYEAR=2019
DGENRE=Blues
TTITLE0=Run Away From It All
TTITLE1=Medicate My Mind
TTITLE2=Let Me Down East (w Amanda Shires)
TTITLE3=Best Seat in the House
TTITLE4=You Got Lucky (w Amanda Shires)
TTITLE5=Mother Mountain (w Oliver Woods)
EXTD=
EXTT0=
EXTT1=
EXTT2=
EXTT3=
EXTT4=
EXTT5=
PLAYORDER=
